<?xml version="1.0" encoding="UTF-8"?><svg id="Layer_2" xmlns="http://www.w3.org/2000/svg" viewBox="0 0 472.72 128.72"><defs><style>.cls-1{fill:#706aba;}.cls-2{fill:#1d1d1b;}.cls-3{fill:#22177a;}.cls-4{fill:#ffd0ec;}.cls-5{fill:#5a58af;}.cls-6{fill:#fff;}</style></defs><g id="Layer_1-2"><path class="cls-2" d="M422.23,51.18c-.19-.28-.51-.44-.84-.44h-2.71c-.43,0-.82.27-.97.68l-8.52,23.51c-.03.09-.11.1-.14.1-.03,0-.11,0-.15-.1l-8.76-23.52c-.15-.4-.54-.67-.96-.67h-2.71c-.34,0-.65.17-.84.44s-.24.63-.12.95l10.43,27.92c.22.6.81,1,1.45,1h3.24c.64,0,1.23-.41,1.45-1.01l10.28-27.91c.12-.32.07-.67-.12-.94Z"/><path class="cls-2" d="M437.76,51.82c-.22-.6-.81-1-1.45-1h-3.24c-.64,0-1.23.41-1.45,1.01l-10.28,27.91c-.12.32-.07.67.12.94s.51.44.84.44h2.71c.43,0,.82-.27.97-.68l2.05-5.65c.07-.19.25-.31.44-.31h12.53c.2,0,.37.12.44.31l2.11,5.66c.15.4.54.67.96.67h2.71c.34,0,.65-.17.84-.44.19-.28.24-.63.12-.95l-10.43-27.92ZM434.5,56.94c.03-.09.11-.1.14-.1h0s.11.01.14.1l4.97,13.34c.03.07,0,.13-.02.15-.01.02-.06.07-.14.07h-9.79c-.08,0-.12-.05-.13-.07-.02-.02-.05-.08-.02-.15l4.84-13.34Z"/><path class="cls-2" d="M471.7,76.33h-12.82v-24.49c0-.56-.46-1.02-1.02-1.02h-2.78c-.56,0-1.02.46-1.02,1.02v28.3c0,.56.46,1.02,1.02,1.02h16.63c.56,0,1.02-.46,1.02-1.02v-2.78c0-.56-.46-1.02-1.02-1.02Z"/><path class="cls-2" d="M339.96,63.36c-3.12-.6-6.82-1.95-6.78-4.9v-.06s.07-3.7,6.34-3.7c4.6,0,5.89,2.66,6.23,3.81.12.4.48.67.89.67h3.12c.57,0,1.17-.3.9-1.17-1.17-4.4-4.54-6.95-10-7.56-3.57-.4-7.31.61-9.75,2.65-1.64,1.36-2.57,3.08-2.71,4.97-.4,5.65,2.73,7.59,8.65,9.19h.06c6.13,1.67,8.66,2.35,9.31,4.6.36,1.24.1,2.61-.7,3.66-.8,1.05-2.54,2.29-6.22,2.25-5.14-.06-6.82-3.78-7.31-5.38-.12-.39-.47-.65-.88-.65h-2.79c-.27,0-.53.12-.71.33-.18.21-.25.48-.2.75.65,3.6,2.6,6.21,5.8,7.76,2.49,1.21,5.06,1.44,6.66,1.44.43,0,.79-.02,1.06-.04,4.62-.32,9.79-2.62,10.43-8.11.66-5.61-2.86-8.85-11.41-10.51Z"/><path class="cls-2" d="M323.62,66.19l-1.92-.63c-.62-.2-1.28.11-1.5.72-2.46,6.7-6.96,9.97-10.32,10.24-1.38.11-3.27-.22-4.41-2.43-.25-.48-.44-.99-.56-1.51,3.68-.58,7.4-3.31,8.74-6.42.95-2.23.55-4.42-1.07-5.87-1.84-1.64-5.06-1.21-7.67.81-1.97,1.53-3.53,4.19-4.15,6.76-1.52-.43-2.63-1.13-3.19-2.04-.73-1.17-.67-2.85.17-4.99,1.8-4.57,7.62-6.82,10-7.71,1.35-.5.79-1.88.79-1.88l-.5-1.53c-.08-.32-.3-.6-.59-.76-.29-.16-.63-.19-.95-.09-3.03.98-10.36,3.94-12.88,10.35-1.72,4.37-.84,7.28.2,8.95,1.29,2.07,3.55,3.51,6.57,4.17.15,1.32.54,2.59,1.16,3.8,1.59,3.08,4.47,4.85,7.91,4.85h0c.26,0,.53-.01.8-.03,5.92-.47,11.34-5.52,14.15-13.18.12-.32.1-.65-.05-.95-.14-.3-.4-.52-.71-.62ZM308.92,63.06c.73-.07,1.92.52,1.39,2.05s-2.35,2.95-5.51,3.31c.11-1.01.68-2.74,1.54-3.83s1.66-1.42,2.58-1.52Z"/><path class="cls-2" d="M200.64,35.04l2.11,5.66c.15.4.54.67.96.67h2.71c.34,0,.65-.17.84-.44.19-.28.24-.63.12-.95l-10.43-27.92c-.22-.6-.81-1-1.45-1h-3.24c-.64,0-1.23.41-1.45,1.01l-10.28,27.91c-.12.32-.07.67.12.94.19.28.51.44.84.44h2.71c.43,0,.82-.27.97-.68l2.05-5.65c.07-.19.25-.31.44-.31h12.53c.2,0,.37.12.44.31ZM198.94,30.68s-.06.07-.14.07h-9.79c-.08,0-.12-.05-.14-.07-.01-.02-.05-.08-.02-.15l4.83-13.34c.03-.09.13-.1.15-.1.03,0,.11.01.14.1l4.97,13.34c.03.07,0,.13-.02.15Z"/><rect class="cls-2" x="241.14" y="11.03" width="4.83" height="30.34" rx="1.02" ry="1.02"/><rect class="cls-2" x="402.33" y="11.03" width="4.83" height="30.34" rx="1.02" ry="1.02"/><path class="cls-2" d="M259.3,19.85s12.34,17.69,14.53,20.74c.3.42.77.74,1.29.78.22.02,1.98,0,2.02,0,.59,0,.98-.12,1.25-.38.29-.28.41-.71.4-1.39-.04-3.31,0-26.63-.01-26.92-.01-.8.04-1.24-.25-1.53-.28-.29-.48-.34-1.51-.36-.19,0-1.45,0-1.58,0-.65,0-1.04.04-1.29.29-.3.29-.3.79-.3,1.7,0,6.4,0,12.79,0,19.19,0,0-12.21-17.23-14.46-20.35-.34-.47-.87-.77-1.45-.8-.33-.02-.76-.02-1.32-.03h-.25c-.91,0-1.4,0-1.7.29-.3.29-.3.79-.3,1.7,0,8.47,0,25.89,0,26.26,0,1.14-.02,1.66.3,1.98.3.31.8.31,1.78.32.3,0,1.41.02,1.45.02,1.13-.04,1.39-.48,1.39-1.36.03-3.32-.01-19.25-.01-20.16Z"/><path class="cls-2" d="M157.13,41.37h16.63c.56,0,1.02-.46,1.02-1.02v-2.78c0-.56-.46-1.02-1.02-1.02h-12.82V12.05c0-.56-.46-1.02-1.02-1.02h-2.78c-.56,0-1.02.46-1.02,1.02v28.3c0,.56.46,1.02,1.02,1.02Z"/><path class="cls-2" d="M311.76,41.37h2.71c.43,0,.82-.27.97-.68l2.05-5.65c.07-.19.25-.31.44-.31h12.53c.2,0,.37.12.44.31l2.11,5.66c.15.4.54.67.96.67h2.71c.34,0,.65-.17.84-.44.19-.28.24-.63.12-.95l-10.43-27.92c-.22-.6-.81-1-1.45-1h-3.24c-.64,0-1.23.41-1.45,1.01l-10.28,27.91c-.12.32-.07.67.12.94.19.28.51.44.84.44ZM319.12,30.53l4.83-13.34c.03-.09.13-.1.15-.1.03,0,.11.01.14.1l4.97,13.34c.03.07,0,.13-.02.15-.02.02-.06.07-.14.07h-9.79c-.08,0-.12-.05-.14-.07-.01-.02-.05-.08-.02-.15Z"/><path class="cls-2" d="M287.39,41.37h16.63c.56,0,1.02-.46,1.02-1.02v-2.78c0-.56-.46-1.02-1.02-1.02h-12.82V12.05c0-.56-.46-1.02-1.02-1.02h-2.78c-.56,0-1.02.46-1.02,1.02v28.3c0,.56.46,1.02,1.02,1.02Z"/><path class="cls-2" d="M395.96,14.67v-2.57c0-.56-.46-1.02-1.02-1.02h-18.96c-.56,0-1.02.46-1.02,1.02v2.57c0,.56.46,1.02,1.02,1.02h7.07v24.71c0,.56.46,1.02,1.02,1.02h2.78c.56,0,1.02-.46,1.02-1.02V15.69h7.07c.56,0,1.02-.46,1.02-1.02Z"/><path class="cls-2" d="M385.47,50.82h2.78c.56,0,1.02.46,1.02,1.02v28.3c0,.56-.46,1.02-1.02,1.02h-2.78c-.56,0-1.02-.46-1.02-1.02v-28.3c0-.56.46-1.02,1.02-1.02Z"/><path class="cls-2" d="M377.05,50.82h-18.96c-.56,0-1.02.46-1.02,1.02v2.57c0,.56.46,1.02,1.02,1.02h7.07v24.71c0,.56.46,1.02,1.02,1.02h2.78c.56,0,1.02-.46,1.02-1.02v-24.71h7.07c.56,0,1.02-.46,1.02-1.02v-2.57c0-.56-.46-1.02-1.02-1.02Z"/><path class="cls-2" d="M343.98,41.42h2.78c.56,0,1.02-.46,1.02-1.02v-13.21h14.78v13.21c0,.56.46,1.02,1.02,1.02h2.78c.56,0,1.02-.46,1.02-1.02V12.1c0-.56-.46-1.02-1.02-1.02h-2.78c-.56,0-1.02.46-1.02,1.02v11.12h-14.78v-11.12c0-.56-.46-1.02-1.02-1.02h-2.78c-.56,0-1.02.46-1.02,1.02v28.3c0,.56.46,1.02,1.02,1.02Z"/><path class="cls-2" d="M226.8,28.86h0c8.4,0,9.39-6.23,9.43-8.91.03-2.53-.71-4.58-2.22-6.1-2.79-2.81-7.17-2.82-7.35-2.82h-12.11c-.56,0-1.02.46-1.02,1.02v28.3c0,.56.46,1.02,1.02,1.02h2.78c.56,0,1.02-.46,1.02-1.02v-11.49h8.45ZM231.27,20.81c-.56,3.92-4.38,3.7-4.56,3.69h-8.36v-8.88c2.68-.02,7.36-.03,8.76.01.66.02,2.31.21,3.37,1.46.75.9,1.02,2.15.8,3.71Z"/><path class="cls-2" d="M290.14,50.82h-17.81c-.56,0-1.02.46-1.02,1.02v28.3c0,.56.46,1.02,1.02,1.02h2.78c.56,0,1.02-.46,1.02-1.02v-12.57h9.94c.56,0,1.02-.46,1.02-1.02v-2.57c0-.56-.46-1.02-1.02-1.02h-9.94v-7.53h14c.56,0,1.02-.46,1.02-1.02v-2.56c0-.56-.46-1.02-1.02-1.02Z"/><rect class="cls-2" x="181.4" y="50.82" width="4.83" height="30.34" rx="1.02" ry="1.02"/><path class="cls-2" d="M174.93,50.82h-17.81c-.56,0-1.02.46-1.02,1.02v28.3c0,.56.46,1.02,1.02,1.02h2.78c.56,0,1.02-.46,1.02-1.02v-12.57h9.94c.56,0,1.02-.46,1.02-1.02v-2.57c0-.56-.46-1.02-1.02-1.02h-9.94v-7.53h14c.56,0,1.02-.46,1.02-1.02v-2.56c0-.56-.46-1.02-1.02-1.02Z"/><path class="cls-2" d="M213.52,76.33h-12.82v-24.49c0-.56-.46-1.02-1.02-1.02h-2.78c-.56,0-1.02.46-1.02,1.02v28.3c0,.56.46,1.02,1.02,1.02h16.63c.56,0,1.02-.46,1.02-1.02v-2.78c0-.56-.46-1.02-1.02-1.02Z"/><path class="cls-2" d="M251.73,76.18c-.12-.52-.61-.87-1.15-.83-.98.09-2.74.08-3.61-.99-.69-.85-1.86-3.78,2.15-12.62,3.02-6.66,1.4-9.4-.48-10.52-2.35-1.4-6.01-.52-10.08,2.4-.64-1.65-1.48-2.87-2.49-3.64-1.36-1.03-4.24-2.22-8.26,1.4-3.96,3.57-7.34,10.18-8.06,15.95-.85,6.83.4,11.82,1,13.67.07.22.23.4.44.5.11.05.36.12.68.02l2.55-1.01c.41-.16.63-.62.5-1.04-.49-1.58-1.58-5.87-.86-11.64.59-4.72,3.53-10.28,6.72-13.15,1.22-1.1,2.15-1.51,2.61-1.16.63.48,1.19,1.85,1.58,3.45-1.15,1.14-2.2,2.37-3.18,3.63-4.65,5.95-6.29,11.78-4.79,15.88.74,2.03,2.1,3.25,4.06,3.69,2.54.57,4.87-.88,6.29-3.17,2.63-4.23,3.04-12.07,2.17-18.43,5.21-4.55,6.43-4.05,6.81-3.57.3.38.21,1.73-1.23,4.91-3.76,8.29-4.26,13.94-1.53,17.27,2.35,2.86,6.23,2.74,7.79,2.56.3-.04.57-.2.75-.45.18-.25.24-.56.17-.86l-.52-2.25ZM233.62,75.36c-1.15,1.36-2.66.94-3.04-.31-.61-2.01-.66-5.6,4.97-12.4.38,5.16.1,10.32-1.93,12.72Z"/><rect class="cls-1" x="0" y="0" width="125.9" height="128.72" rx="21.15" ry="21.15"/><path class="cls-3" d="M66.87,64.52l59.03-37.26v-4.76l-52.97,33.43L116.95,3.9c-1.11-.79-2.3-1.47-3.55-2.04l-44.26,52.31L90.09,0h-4.32l-20.55,53.14,1.23-53.14h-4.03l-1.26,54.65L39.5,0h-4.33l21.77,54.93L10.26,3.04c-1.16.7-2.25,1.51-3.25,2.41l46.16,51.31L0,26.61v4.63l59.03,33.47L0,101.96v4.76l52.97-33.43L9.22,125.01c1.12.77,2.33,1.44,3.59,1.98l43.94-51.94-20.75,53.66h4.32l20.35-52.63-1.22,52.63h4.03l1.25-54.14,21.46,54.14h4.33l-21.57-54.42,46.38,51.56c1.17-.68,2.28-1.47,3.29-2.36l-45.9-51.02,53.17,30.15v-4.63l-59.03-33.47Z"/><path class="cls-6" d="M5.7,61.23s53.23-79.33,114.5,0c0,0-54.12,93.42-114.5,0Z"/><circle class="cls-4" cx="62.75" cy="64.06" r="29.58"/><path class="cls-3" d="M72.73,56.46c-3.93-3.65-9.43.31-9.98.72-.56-.42-6.05-4.37-9.98-.72-1.72,1.59-2.33,4.02-1.87,6.32,1.49,7.39,10.82,13.36,11.86,14.01h0c1.04-.65,10.35-6.61,11.84-14.01.46-2.3-.15-4.73-1.87-6.32Z"/><path class="cls-5" d="M156.14,115.53l15.33-6.54c2.54-1.23,3.18-2.35,3.15-3.37-.05-2.26-2.16-3.07-5.24-3.07-3.45,0-9.28,2.13-12.73,4.49l-.04-8.64c5.23-1.89,9.22-2.83,14.71-2.83,7.99,0,13.98,2.87,13.98,7.66,0,3.38-2.36,5.04-7.77,7.3l-8.42,3.3.02.35h9.91c2.91,0,5.53-1.54,6.87-3.03l-.11,10.39h-29.67v-5.99Z"/><path class="cls-5" d="M223.87,115.53l15.33-6.54c2.54-1.23,3.18-2.35,3.15-3.37-.05-2.26-2.16-3.07-5.24-3.07-3.45,0-9.28,2.13-12.73,4.49l-.04-8.64c5.23-1.89,9.22-2.83,14.71-2.83,7.99,0,13.98,2.87,13.98,7.66,0,3.38-2.36,5.04-7.77,7.3l-8.42,3.3.02.35h9.91c2.91,0,5.53-1.54,6.87-3.03l-.11,10.39h-29.67v-5.99Z"/><path class="cls-5" d="M187.99,108.81c0-8.68,7.59-13.25,16.99-13.25s17.03,4.58,17.03,13.25-7.59,13.25-17.03,13.25-16.99-4.61-16.99-13.25ZM214.94,108.81c0-3.63-4.66-5.74-10.22-5.74s-9.68,2.11-9.68,5.74,4.35,6.07,9.87,6.07,10.03-2.43,10.03-6.07Z"/><path class="cls-5" d="M256.67,120.22v-9.62c3.29,2.05,8.6,4.2,13.69,4.2,3.51,0,5.75-1.5,5.75-3.37,0-2.01-2.09-3.15-5.34-3.15-2.64,0-5.09,1.21-6.74,2.42l-6.66-2.56.04-12.19h26.97l.55,8.66c-1.76-1.53-4.43-1.7-8.05-1.7h-12.12v4.79l.29.22c2.31-1.68,5.64-2.78,8.86-2.78,6.59,0,12.17,2.16,12.17,7.61,0,6.41-6.46,9.37-15.61,9.37-5.2,0-10.87-.81-13.8-1.9Z"/></g></svg>