<svg xmlns="http://www.w3.org/2000/svg" viewBox="0 0 71.25 103.29"><defs><style>.cls-1{fill:#3c3c3b;}</style></defs><title>Asset 3</title><g id="Layer_2" data-name="Layer 2"><g id="Layer_1-2" data-name="Layer 1"><path class="cls-1" d="M12.87,64.56H10.5V56.44L16,62.63a10.18,10.18,0,0,0,2.18,1.83v.1H15.5v5H29.26v-5H26.39L17.72,55.2l8.07-6.44h3.47v-5H14.9v5h3.56v.1a4.41,4.41,0,0,0-1,.59l-6.93,5.3v-11H3.57V64.56H.74v5H12.87Z"/><path class="cls-1" d="M29.31,33.76H26V25.4c0-4.26,2.67-7.66,6.44-7.66a21.82,21.82,0,0,1,3.05.25V12.55a21.36,21.36,0,0,0-2.66-.22c-4,0-6.39,2.18-7.43,6.54h-.1a39.62,39.62,0,0,0,.44-5.94h-9.5v5h2.82V33.76H16.29v5h13Z"/><path class="cls-1" d="M55.15,43.74H45v5.05h3.27V58.1c0,4.11-2.43,6.49-5.4,6.49-4.16,0-4.55-2.67-4.55-6.34V43.74H31.34V61.17c0,5.49,2.82,9.06,8.71,9.06,4.46,0,7.33-1.83,9-5.94h.1c-.64,1.24-.64,3.61-.64,5.35h9.7V64.58h-3Z"/><path class="cls-1" d="M71.25,48.79v-5H67.69V38H60.76v5.74H57.24v5h3.51V63.3c0,4.55,2.72,6.93,7.82,6.93a13.4,13.4,0,0,0,2.67-.28V64.87c-2.67-.05-3.56-1-3.56-4.55V48.79Z"/><path class="cls-1" d="M55.56,23.41A4.32,4.32,0,0,0,60.22,19c0-2.92-2-4.46-4.65-4.46S50.91,16,50.91,19a4.31,4.31,0,0,0,4.65,4.45"/><path class="cls-1" d="M55.56,36.45A4.32,4.32,0,0,0,60.22,32c0-2.92-2-4.45-4.65-4.45S50.91,29.07,50.91,32a4.32,4.32,0,0,0,4.65,4.46"/><path class="cls-1" d="M40.84,8.61c2.87,0,4.65-1.73,4.65-4.31S43.71,0,40.84,0s-4.65,1.73-4.65,4.31S38,8.61,40.84,8.61"/><polygon class="cls-1" points="44.56 12.92 37.61 12.92 37.61 17.97 37.62 17.97 37.62 33.76 34.8 33.76 34.8 38.81 47.52 38.81 47.52 33.76 44.56 33.76 44.56 12.92"/><path class="cls-1" d="M3.56,38.81H10.5V18h3.71V12.92H10.5V10.25c0-2.69,1.08-4.36,3.71-5V0C6.94.25,3.56,3.6,3.56,10.15v2.77H0V18H3.56Z"/><polygon class="cls-1" points="6.74 85.25 6.82 86.2 7.81 86.2 7.75 84.32 2.73 84.32 2.73 85.25 3.52 85.25 3.49 90.07 2.73 90.07 2.73 91 5.61 91 5.61 90.07 4.82 90.07 4.83 88.06 6.75 88.06 6.75 87.14 4.84 87.14 4.85 85.25 6.74 85.25"/><path class="cls-1" d="M11.49,88.16c.49,0,.63.08,1.27,1.33.71,1.4.82,1.51,1.72,1.51h.68V90a2,2,0,0,1-.28,0c-.23,0-.38-.11-.79-.8-.62-1.07-.78-1.23-1.4-1.4v0c1.19-.3,1.57-1,1.57-1.76s-.5-1.75-2-1.75H9.13v.93h.79l0,4.82H9.13V91H12v-.93h-.79V88.16Zm-.24-2.91h.8a.85.85,0,0,1,.91,1c0,.62-.49,1-1.21,1h-.52Z"/><polygon class="cls-1" points="16.4 90.07 16.4 91 21.43 91 21.56 89 20.48 89 20.36 90.07 18.46 90.07 18.48 88.06 20.4 88.06 20.4 87.14 18.49 87.14 18.5 85.25 20.39 85.25 20.47 86.2 21.46 86.2 21.4 84.32 16.4 84.32 16.4 85.25 17.19 85.25 17.15 90.07 16.4 90.07"/><polygon class="cls-1" points="23.32 90.07 23.32 91 28.36 91 28.48 89 27.41 89 27.29 90.07 25.39 90.07 25.4 88.06 27.32 88.06 27.32 87.14 25.41 87.14 25.42 85.25 27.31 85.25 27.39 86.2 28.38 86.2 28.32 84.32 23.32 84.32 23.32 85.25 24.11 85.25 24.07 90.07 23.32 90.07"/><polygon class="cls-1" points="30.24 90.07 30.24 91 35.29 91 35.41 89 34.34 89 34.22 90.07 32.32 90.07 32.36 85.25 33.11 85.25 33.11 84.32 30.24 84.32 30.24 85.25 31.03 85.25 30.99 90.07 30.24 90.07"/><path class="cls-1" d="M41,91h2.85v-.93h-.67L41,84.28H39.51l-2.39,5.79h-.67V91h2.69v-.93h-.67L39,88.66h2.25l.46,1.41H41Zm-1.72-3.26.84-2.31h0l.75,2.31Z"/><polygon class="cls-1" points="49.67 85.25 50.46 85.25 50.42 88.84 50.4 88.84 47.02 84.32 45.05 84.32 45.05 85.25 45.84 85.25 45.8 90.07 45.05 90.07 45.05 91 47.66 91 47.66 90.07 46.87 90.07 46.91 86.25 46.93 86.25 50.5 91 51.49 91 51.53 85.25 52.29 85.25 52.29 84.32 49.67 84.32 49.67 85.25"/><path class="cls-1" d="M59.2,86.3V84.58a5.42,5.42,0,0,0-2-.39c-2.31,0-3.77,1.26-3.77,3.59,0,1.92,1.11,3.35,3.58,3.35a6.54,6.54,0,0,0,2.18-.33l0-1.83h-1l0,1a4,4,0,0,1-.94.1,2.4,2.4,0,0,1-.12-4.8,3.09,3.09,0,0,1,1.1.2v.84Z"/><polygon class="cls-1" points="60.78 90.07 60.78 91 65.82 91 65.94 89 64.87 89 64.75 90.07 62.85 90.07 62.86 88.06 64.78 88.06 64.78 87.14 62.87 87.14 62.88 85.25 64.77 85.25 64.86 86.2 65.84 86.2 65.78 84.32 60.78 84.32 60.78 85.25 61.57 85.25 61.53 90.07 60.78 90.07"/><rect class="cls-1" x="67.91" y="86.93" width="3.35" height="1.22"/><path class="cls-1" d="M6.53,100.82h.84v1.36a4.41,4.41,0,0,1-.89.11,2.44,2.44,0,0,1-.12-4.87,3.89,3.89,0,0,1,1.19.15l0,.89h1l0-1.73a5.43,5.43,0,0,0-2.12-.38c-2.31,0-3.77,1.26-3.77,3.59,0,1.92,1.11,3.35,3.58,3.35a6.33,6.33,0,0,0,2.31-.36v-2.11h.72V99.9H6.53Z"/><path class="cls-1" d="M15.67,101.43c-.62-1.07-.78-1.23-1.4-1.4v0c1.19-.3,1.57-1,1.57-1.76s-.5-1.75-2-1.75H10.71v.93h.79l0,4.82h-.76v.93h2.87v-.93h-.79v-1.91h.27c.49,0,.63.08,1.27,1.32.71,1.4.82,1.51,1.72,1.51h.68v-1a2,2,0,0,1-.28,0c-.23,0-.38-.11-.79-.8m-2.32-2h-.52v-2h.8a.85.85,0,0,1,.91,1c0,.62-.49,1-1.2,1"/><path class="cls-1" d="M22.2,96.44H20.73l-2.39,5.79h-.67v.93h2.69v-.93h-.67l.51-1.41h2.25l.46,1.41h-.67v.93H25.1v-.93h-.67ZM20.53,99.9l.84-2.31h0l.75,2.31Z"/><path class="cls-1" d="M30.47,96.44H29l-2.39,5.79h-.67v.93h2.69v-.93H28l.51-1.41h2.25l.46,1.41h-.67v.93h2.85v-.93H32.7ZM28.81,99.9l.84-2.31h0l.75,2.31Z"/><polygon class="cls-1" points="34.69 96.49 34.69 97.42 35.48 97.42 35.45 102.23 34.69 102.23 34.69 103.16 37.56 103.16 37.56 102.23 36.77 102.23 36.78 100.23 38.71 100.23 38.71 99.3 36.8 99.3 36.81 97.42 38.7 97.42 38.78 98.37 39.77 98.37 39.71 96.49 34.69 96.49"/><polygon class="cls-1" points="41.15 97.42 41.94 97.42 41.91 102.23 41.15 102.23 41.15 103.16 44.02 103.16 44.02 102.23 43.23 102.23 43.27 97.42 44.02 97.42 44.02 96.49 41.15 96.49 41.15 97.42"/><polygon class="cls-1" points="48.97 99.7 51.49 97.42 52.08 97.42 52.08 96.49 49.33 96.49 49.33 97.42 50.08 97.42 47.64 99.64 47.67 97.42 48.42 97.42 48.42 96.49 45.55 96.49 45.55 97.42 46.34 97.42 46.3 102.23 45.55 102.23 45.55 103.16 48.42 103.16 48.42 102.23 47.63 102.23 47.64 100.03 49.95 102.23 49.36 102.23 49.36 103.16 52.21 103.16 52.21 102.23 51.61 102.23 48.97 99.7"/><path class="cls-1" d="M56.5,96.36a3.23,3.23,0,0,0-3.31,3.55,3.09,3.09,0,0,0,3.31,3.38,3.24,3.24,0,0,0,3.31-3.57,3.08,3.08,0,0,0-3.31-3.37m0,5.87c-1.12,0-1.95-.86-1.95-2.36s.71-2.43,1.95-2.43,1.95.86,1.95,2.39c0,1.35-.71,2.41-1.95,2.41"/><polygon class="cls-1" points="60.85 96.49 60.78 98.37 61.79 98.37 61.84 97.42 63.17 97.42 63.14 102.23 62.38 102.23 62.38 103.16 65.26 103.16 65.26 102.23 64.46 102.23 64.5 97.42 65.84 97.42 65.89 98.37 66.9 98.37 66.83 96.49 60.85 96.49"/></g></g></svg>